<svg width="14" height="13" viewBox="0 0 14 13" fill="none" xmlns="http://www.w3.org/2000/svg">
<path d="M6.995 12.3333L12.5783 6.85167C12.9226 6.52059 13.1964 6.12342 13.3835 5.68395C13.5706 5.24449 13.667 4.77179 13.667 4.29417C13.667 3.81655 13.5706 3.34384 13.3835 2.90438C13.1964 2.46492 12.9226 2.06775 12.5783 1.73667C11.8843 1.05167 10.9484 0.667595 9.97333 0.667595C8.99821 0.667595 8.06233 1.05167 7.36833 1.73667L6.995 2.1L6.62166 1.735C5.92794 1.05011 4.99234 0.666077 4.0175 0.666077C3.04265 0.666077 2.10705 1.05011 1.41333 1.735C1.06908 2.06608 0.795215 2.46325 0.608143 2.90271C0.421072 3.34217 0.324646 3.81488 0.324646 4.2925C0.324646 4.77012 0.421072 5.24283 0.608143 5.68229C0.795215 6.12175 1.06908 6.51892 1.41333 6.85L6.995 12.3333Z" fill="#E7E2E2" fill-opacity="0.81"/>
</svg>
